<mxfile host="app.diagrams.net" modified="2023-04-21T06:10:32.495Z" agent="Mozilla/5.0 (Macintosh; Intel Mac OS X 10_15_7) AppleWebKit/605.1.15 (KHTML, like Gecko) Version/15.6 Safari/605.1.15" etag="9lEwXKtkHsjvK3zEFeQD" version="21.1.5" type="device">
  <diagram name="Страница 1" id="4hspCgb8qcHjMcCq8a4Z">
    <mxGraphModel dx="984" dy="595" grid="1" gridSize="10" guides="1" tooltips="1" connect="1" arrows="1" fold="1" page="1" pageScale="1" pageWidth="827" pageHeight="1169" math="0" shadow="0">
      <root>
        <mxCell id="0" />
        <mxCell id="1" parent="0" />
        <mxCell id="oZsoxgk_ZUn7pI4e4deQ-7" value="" style="edgeStyle=orthogonalEdgeStyle;rounded=0;orthogonalLoop=1;jettySize=auto;html=1;" edge="1" parent="1" source="oZsoxgk_ZUn7pI4e4deQ-1" target="oZsoxgk_ZUn7pI4e4deQ-2">
          <mxGeometry relative="1" as="geometry" />
        </mxCell>
        <mxCell id="oZsoxgk_ZUn7pI4e4deQ-1" value="start" style="rounded=1;whiteSpace=wrap;html=1;" vertex="1" parent="1">
          <mxGeometry x="406" y="80" width="120" height="60" as="geometry" />
        </mxCell>
        <mxCell id="oZsoxgk_ZUn7pI4e4deQ-6" value="" style="edgeStyle=orthogonalEdgeStyle;rounded=0;orthogonalLoop=1;jettySize=auto;html=1;" edge="1" parent="1" source="oZsoxgk_ZUn7pI4e4deQ-2" target="oZsoxgk_ZUn7pI4e4deQ-3">
          <mxGeometry relative="1" as="geometry" />
        </mxCell>
        <mxCell id="oZsoxgk_ZUn7pI4e4deQ-2" value="size" style="shape=parallelogram;perimeter=parallelogramPerimeter;whiteSpace=wrap;html=1;fixedSize=1;" vertex="1" parent="1">
          <mxGeometry x="406" y="180" width="120" height="60" as="geometry" />
        </mxCell>
        <mxCell id="oZsoxgk_ZUn7pI4e4deQ-5" value="" style="edgeStyle=orthogonalEdgeStyle;rounded=0;orthogonalLoop=1;jettySize=auto;html=1;" edge="1" parent="1" source="oZsoxgk_ZUn7pI4e4deQ-3" target="oZsoxgk_ZUn7pI4e4deQ-4">
          <mxGeometry relative="1" as="geometry" />
        </mxCell>
        <mxCell id="oZsoxgk_ZUn7pI4e4deQ-3" value="size==int" style="rhombus;whiteSpace=wrap;html=1;" vertex="1" parent="1">
          <mxGeometry x="398" y="270" width="136" height="80" as="geometry" />
        </mxCell>
        <mxCell id="oZsoxgk_ZUn7pI4e4deQ-16" value="" style="edgeStyle=orthogonalEdgeStyle;rounded=0;orthogonalLoop=1;jettySize=auto;html=1;" edge="1" parent="1" source="oZsoxgk_ZUn7pI4e4deQ-4" target="oZsoxgk_ZUn7pI4e4deQ-14">
          <mxGeometry relative="1" as="geometry" />
        </mxCell>
        <mxCell id="oZsoxgk_ZUn7pI4e4deQ-4" value="array[size]" style="shape=parallelogram;perimeter=parallelogramPerimeter;whiteSpace=wrap;html=1;fixedSize=1;" vertex="1" parent="1">
          <mxGeometry x="406" y="390" width="120" height="60" as="geometry" />
        </mxCell>
        <mxCell id="oZsoxgk_ZUn7pI4e4deQ-8" value="yes" style="text;html=1;align=center;verticalAlign=middle;resizable=0;points=[];autosize=1;strokeColor=none;fillColor=none;" vertex="1" parent="1">
          <mxGeometry x="470" y="345" width="40" height="30" as="geometry" />
        </mxCell>
        <mxCell id="oZsoxgk_ZUn7pI4e4deQ-9" value="" style="endArrow=classic;html=1;rounded=0;exitX=1;exitY=0.5;exitDx=0;exitDy=0;entryX=1;entryY=0.5;entryDx=0;entryDy=0;" edge="1" parent="1" source="oZsoxgk_ZUn7pI4e4deQ-3" target="oZsoxgk_ZUn7pI4e4deQ-2">
          <mxGeometry width="50" height="50" relative="1" as="geometry">
            <mxPoint x="390" y="390" as="sourcePoint" />
            <mxPoint x="600" y="200" as="targetPoint" />
            <Array as="points">
              <mxPoint x="600" y="310" />
              <mxPoint x="600" y="210" />
            </Array>
          </mxGeometry>
        </mxCell>
        <mxCell id="oZsoxgk_ZUn7pI4e4deQ-10" value="No" style="text;html=1;align=center;verticalAlign=middle;resizable=0;points=[];autosize=1;strokeColor=none;fillColor=none;" vertex="1" parent="1">
          <mxGeometry x="530" y="275" width="40" height="30" as="geometry" />
        </mxCell>
        <mxCell id="oZsoxgk_ZUn7pI4e4deQ-17" value="" style="edgeStyle=orthogonalEdgeStyle;rounded=0;orthogonalLoop=1;jettySize=auto;html=1;" edge="1" parent="1" source="oZsoxgk_ZUn7pI4e4deQ-14" target="oZsoxgk_ZUn7pI4e4deQ-15">
          <mxGeometry relative="1" as="geometry" />
        </mxCell>
        <mxCell id="oZsoxgk_ZUn7pI4e4deQ-14" value="SortArray-&amp;gt;&lt;br&gt;array2[size2]" style="rounded=0;whiteSpace=wrap;html=1;" vertex="1" parent="1">
          <mxGeometry x="406" y="490" width="120" height="60" as="geometry" />
        </mxCell>
        <mxCell id="oZsoxgk_ZUn7pI4e4deQ-19" value="" style="edgeStyle=orthogonalEdgeStyle;rounded=0;orthogonalLoop=1;jettySize=auto;html=1;" edge="1" parent="1" source="oZsoxgk_ZUn7pI4e4deQ-15" target="oZsoxgk_ZUn7pI4e4deQ-18">
          <mxGeometry relative="1" as="geometry" />
        </mxCell>
        <mxCell id="oZsoxgk_ZUn7pI4e4deQ-15" value="array2[size2]" style="shape=parallelogram;perimeter=parallelogramPerimeter;whiteSpace=wrap;html=1;fixedSize=1;" vertex="1" parent="1">
          <mxGeometry x="406" y="585" width="120" height="60" as="geometry" />
        </mxCell>
        <mxCell id="oZsoxgk_ZUn7pI4e4deQ-18" value="End" style="rounded=1;whiteSpace=wrap;html=1;" vertex="1" parent="1">
          <mxGeometry x="406" y="670" width="120" height="60" as="geometry" />
        </mxCell>
      </root>
    </mxGraphModel>
  </diagram>
</mxfile>
